<?xml version="1.0" ?><!DOCTYPE svg  PUBLIC '-//W3C//DTD SVG 1.1//EN'  'http://www.w3.org/Graphics/SVG/1.1/DTD/svg11.dtd'><svg id="Layer_1" style="enable-background:new 0 0 76 76;" version="1.1" viewBox="0 0 76 76" xml:space="preserve" xmlns="http://www.w3.org/2000/svg" xmlns:xlink="http://www.w3.org/1999/xlink"><style type="text/css">
	.st0{fill:#3DA5AA;}
	.st1{fill:#EDEFF4;}
	.st2{fill:#543D53;}
	.st3{fill:#EF716F;}
	.st4{fill:#F2E199;}
	.st5{fill:#6D7C7C;}
	.st6{fill:#E1E3EA;}
	.st7{fill:#FFFFFF;}
	.st8{fill:#F7796B;}
	.st9{opacity:0.3;}
	.st10{fill:#E8635E;}
	.st11{fill:#CC4848;}
	.st12{fill:#8E8D96;}
	.st13{fill:#E26959;}
	.st14{fill:#A3E2E5;}
	.st15{fill:#E5C67A;}
	.st16{fill:#FC7D70;}
	.st17{fill:none;stroke:#543D53;stroke-width:1.5;stroke-linecap:round;stroke-linejoin:round;stroke-miterlimit:10;}
	.st18{fill:#FFFFFF;stroke:#543D53;stroke-width:1.5;stroke-linecap:round;stroke-linejoin:round;stroke-miterlimit:10;}
	.st19{fill:#97C97D;}
	.st20{fill:#BEEAA2;}
	.st21{fill:#F0C419;}
	.st22{fill:#DDDDE7;}
	.st23{fill:#89BC6C;}
	.st24{fill:#EDEFF4;stroke:#543D53;stroke-width:1.5;stroke-linecap:round;stroke-linejoin:round;stroke-miterlimit:10;}
	.st25{fill:#9B9BA5;}
	.st26{fill:#F77F7F;}
	.st27{fill:#A3E2E5;stroke:#543D53;stroke-width:1.5;stroke-linecap:round;stroke-linejoin:round;stroke-miterlimit:10;}
	.st28{fill:#EF716F;stroke:#543D53;stroke-width:1.5;stroke-linecap:round;stroke-linejoin:round;stroke-miterlimit:10;}
	.st29{fill:#3DA5AA;stroke:#543D53;stroke-width:1.5;stroke-linecap:round;stroke-linejoin:round;stroke-miterlimit:10;}
	.st30{fill:#70737F;stroke:#543D53;stroke-width:1.5;stroke-linecap:round;stroke-linejoin:round;stroke-miterlimit:10;}
	.st31{fill:#6D7C7C;stroke:#543D53;stroke-width:1.5;stroke-linecap:round;stroke-linejoin:round;stroke-miterlimit:10;}
	.st32{fill:#E1E3EA;stroke:#543D53;stroke-width:1.5;stroke-linecap:round;stroke-linejoin:round;stroke-miterlimit:10;}
	.st33{fill:#F2E199;stroke:#543D53;stroke-width:1.5;stroke-linecap:round;stroke-linejoin:round;stroke-miterlimit:10;}
	.st34{fill:#E5C67A;stroke:#543D53;stroke-width:1.5;stroke-linecap:round;stroke-linejoin:round;stroke-miterlimit:10;}
	.st35{fill:#8E8D96;stroke:#543D53;stroke-width:1.5;stroke-linecap:round;stroke-linejoin:round;stroke-miterlimit:10;}
	.st36{fill:#533D53;}
	.st37{opacity:0.3;fill:#3DA5AA;}
	.st38{fill:none;stroke:#533D53;stroke-width:1.5;stroke-linecap:round;stroke-linejoin:round;stroke-miterlimit:10;}
	.st39{opacity:0.5;}
	.st40{fill:#E0C74C;}
	.st41{fill:#EACE7F;}
</style><g><circle class="st6" cx="38" cy="38" r="32"/><path class="st3" d="M16.8,61.9C22.4,67,29.9,70,38,70s15.6-3,21.2-8.1c-3.8-4.1-11.8-7-21.2-7C28.6,54.9,20.5,57.8,16.8,61.9z"/><path class="st2" d="M38,54.2c-9.7,0-17.9,2.9-21.8,7.2c0.4,0.3,0.7,0.7,1.1,1c3.6-4,11.5-6.7,20.7-6.7c9.2,0,17.1,2.8,20.7,6.7   c0.4-0.3,0.8-0.7,1.1-1C55.9,57.1,47.7,54.2,38,54.2z"/><g><path class="st0" d="M53.4,26.4C53.4,34.9,38,60,38,60S22.6,34.9,22.6,26.4S29.5,11,38,11S53.4,17.9,53.4,26.4z"/><path class="st2" d="M38,60.7c-0.3,0-0.5-0.1-0.6-0.4c-0.6-1-15.5-25.4-15.5-34c0-8.9,7.2-16.1,16.1-16.1    c8.9,0,16.1,7.2,16.1,16.1c0,8.6-14.9,33-15.5,34C38.5,60.6,38.3,60.7,38,60.7z M38,11.7c-8.1,0-14.6,6.6-14.6,14.6    c0,7.2,11.7,27.3,14.6,32.2c2.9-4.8,14.6-24.9,14.6-32.2C52.6,18.3,46.1,11.7,38,11.7z"/></g><circle class="st1" cx="38" cy="26.4" r="6.9"/><path class="st2" d="M38,34.1c-4.2,0-7.7-3.5-7.7-7.7c0-4.2,3.5-7.7,7.7-7.7c4.2,0,7.7,3.5,7.7,7.7C45.7,30.6,42.2,34.1,38,34.1z    M38,20.2c-3.4,0-6.2,2.8-6.2,6.2c0,3.4,2.8,6.2,6.2,6.2c3.4,0,6.2-2.8,6.2-6.2C44.2,22.9,41.4,20.2,38,20.2z"/></g></svg>